<svg
        class="icon farmer_logo"
        style="
          width: 1em;
          height: 1em;
          vertical-align: middle;
          fill: var(--vp-c-text-1);
          color: var(--vp-c-text-1);
          overflow: hidden;
        "
        viewBox="0 0 1024 1024"
        version="1.1"
        xmlns="http://www.w3.org/2000/svg"
        p-id="2468"
      >
        <path
          d="M660 664v-2.104c0-65.864-43.08-125.496-104.752-145.008l-46.536-14.72A208.744 208.744 0 0 0 540 392v-30h120V332c0-72.44-51.616-133.04-120-146.984V90C540 40.376 499.624 0 450 0h-240C160.376 0 120 40.376 120 90v95.016C51.616 198.96 0 259.56 0 332v30h120V392a208.72 208.72 0 0 0 31.288 110.16l-46.528 14.72C43.08 536.4 0 596.04 0 661.904V1024h1024V664H660z m-480-574a30.032 30.032 0 0 1 30-30h240A30.032 30.032 0 0 1 480 90v92H180v-92zM65.136 302c12.384-34.92 45.752-60 84.864-60h360c39.112 0 72.48 25.08 84.864 60H65.136z m264.864 240C247.288 542 180 474.712 180 392v-30H480V392c0 82.712-67.288 150-150 150zM360 599.848v34.152A30.032 30.032 0 0 1 330 664a30.032 30.032 0 0 1-30-30v-34.152a210.856 210.856 0 0 0 60 0z m60 364.152V904h30c39.112 0 72.48 25.08 84.864 60H420z m120-89.92a149.216 149.216 0 0 0-90-30.08H240V754h-60V904H360v60H60V661.896c0-39.984 25.84-76.096 62.856-87.808l70.896-22.424A210.64 210.64 0 0 0 240 581.712v52.288c0 49.624 40.376 90 90 90S420 683.624 420 634v-52.288a210.568 210.568 0 0 0 46.248-30.048l70.896 22.424C574.16 585.8 600 621.904 600 661.896V664h-60v210.08z m424 89.92H600v-240h364v240zM720 784v60h124V784H720z"
          p-id="2469"
        ></path>
      </svg>